<svg width="43" height="43" viewBox="0 0 43 43" fill="none" xmlns="http://www.w3.org/2000/svg">
<path d="M25.45 17.05C27.1209 17.05 28.7233 17.7137 29.9048 18.8952C31.0862 20.0767 31.75 21.6791 31.75 23.35V30.7H27.55V23.35C27.55 22.793 27.3287 22.2589 26.9349 21.8651C26.5411 21.4712 26.0069 21.25 25.45 21.25C24.893 21.25 24.3589 21.4712 23.9651 21.8651C23.5712 22.2589 23.35 22.793 23.35 23.35V30.7H19.15V23.35C19.15 21.6791 19.8137 20.0767 20.9952 18.8952C22.1767 17.7137 23.7791 17.05 25.45 17.05V17.05Z" stroke="white" stroke-width="2" stroke-linecap="round" stroke-linejoin="round"/>
<path d="M14.95 18.1H10.75V30.7H14.95V18.1Z" stroke="white" stroke-width="2" stroke-linecap="round" stroke-linejoin="round"/>
<path d="M12.85 14.95C14.0098 14.95 14.95 14.0098 14.95 12.85C14.95 11.6902 14.0098 10.75 12.85 10.75C11.6902 10.75 10.75 11.6902 10.75 12.85C10.75 14.0098 11.6902 14.95 12.85 14.95Z" stroke="white" stroke-width="2" stroke-linecap="round" stroke-linejoin="round"/>
</svg>
